<mxfile host="drawio-plugin" modified="2023-03-28T09:02:05.415Z" agent="5.0 (Windows NT 6.2; Win64; x64) AppleWebKit/537.36 (KHTML, like Gecko) Chrome/104.0.5112.102 Safari/537.36" etag="JwWz-HKZQBTyhl8i451d" version="20.5.3" type="embed" pages="2"><diagram name="Seite-1" id="8Guc_m7GACzDlGLzOahu"><mxGraphModel dx="630" dy="258" grid="1" gridSize="10" guides="1" tooltips="1" connect="1" arrows="1" fold="1" page="1" pageScale="1" pageWidth="827" pageHeight="1169" math="0" shadow="0"><root><mxCell id="0"/><mxCell id="1" parent="0"/><mxCell id="J7zx7dvqB2Ua68nCfdAC-8" value="Kreis" style="swimlane;fontStyle=1;align=center;verticalAlign=top;childLayout=stackLayout;horizontal=1;startSize=26;horizontalStack=0;resizeParent=1;resizeParentMax=0;resizeLast=0;collapsible=1;marginBottom=0;" parent="1" vertex="1"><mxGeometry x="305" y="260" width="230" height="86" as="geometry"/></mxCell><mxCell id="J7zx7dvqB2Ua68nCfdAC-9" value="- radius: int = 10 {radius&gt;0}" style="text;strokeColor=none;fillColor=none;align=left;verticalAlign=top;spacingLeft=4;spacingRight=4;overflow=hidden;rotatable=0;points=[[0,0.5],[1,0.5]];portConstraint=eastwest;" parent="J7zx7dvqB2Ua68nCfdAC-8" vertex="1"><mxGeometry y="26" width="230" height="26" as="geometry"/></mxCell><mxCell id="hrOjf8g7dYwPzYKnAPuE-6" value="- mittelpunkt: Point = (150,150)" style="text;strokeColor=none;fillColor=none;align=left;verticalAlign=top;spacingLeft=4;spacingRight=4;overflow=hidden;rotatable=0;points=[[0,0.5],[1,0.5]];portConstraint=eastwest;" parent="J7zx7dvqB2Ua68nCfdAC-8" vertex="1"><mxGeometry y="52" width="230" height="26" as="geometry"/></mxCell><mxCell id="J7zx7dvqB2Ua68nCfdAC-10" value="" style="line;strokeWidth=1;fillColor=none;align=left;verticalAlign=middle;spacingTop=-1;spacingLeft=3;spacingRight=3;rotatable=0;labelPosition=right;points=[];portConstraint=eastwest;strokeColor=inherit;" parent="J7zx7dvqB2Ua68nCfdAC-8" vertex="1"><mxGeometry y="78" width="230" height="8" as="geometry"/></mxCell><mxCell id="J7zx7dvqB2Ua68nCfdAC-12" value="Dreieck" style="swimlane;fontStyle=1;align=center;verticalAlign=top;childLayout=stackLayout;horizontal=1;startSize=26;horizontalStack=0;resizeParent=1;resizeParentMax=0;resizeLast=0;collapsible=1;marginBottom=0;" parent="1" vertex="1"><mxGeometry x="50" y="260" width="230" height="138" as="geometry"/></mxCell><mxCell id="J7zx7dvqB2Ua68nCfdAC-13" value="- punktA: Point" style="text;strokeColor=none;fillColor=none;align=left;verticalAlign=top;spacingLeft=4;spacingRight=4;overflow=hidden;rotatable=0;points=[[0,0.5],[1,0.5]];portConstraint=eastwest;" parent="J7zx7dvqB2Ua68nCfdAC-12" vertex="1"><mxGeometry y="26" width="230" height="26" as="geometry"/></mxCell><mxCell id="gbW9CM47LrFMnF1wQmlq-2" value="- punktB: Point" style="text;strokeColor=none;fillColor=none;align=left;verticalAlign=top;spacingLeft=4;spacingRight=4;overflow=hidden;rotatable=0;points=[[0,0.5],[1,0.5]];portConstraint=eastwest;" parent="J7zx7dvqB2Ua68nCfdAC-12" vertex="1"><mxGeometry y="52" width="230" height="26" as="geometry"/></mxCell><mxCell id="gbW9CM47LrFMnF1wQmlq-3" value="- punktC: Point" style="text;strokeColor=none;fillColor=none;align=left;verticalAlign=top;spacingLeft=4;spacingRight=4;overflow=hidden;rotatable=0;points=[[0,0.5],[1,0.5]];portConstraint=eastwest;" parent="J7zx7dvqB2Ua68nCfdAC-12" vertex="1"><mxGeometry y="78" width="230" height="26" as="geometry"/></mxCell><mxCell id="J7zx7dvqB2Ua68nCfdAC-14" value="" style="line;strokeWidth=1;fillColor=none;align=left;verticalAlign=middle;spacingTop=-1;spacingLeft=3;spacingRight=3;rotatable=0;labelPosition=right;points=[];portConstraint=eastwest;strokeColor=inherit;" parent="J7zx7dvqB2Ua68nCfdAC-12" vertex="1"><mxGeometry y="104" width="230" height="8" as="geometry"/></mxCell><mxCell id="J7zx7dvqB2Ua68nCfdAC-42" value="+ anzeigen(g2d: Graphics2D): void&#10;" style="text;strokeColor=none;fillColor=none;align=left;verticalAlign=top;spacingLeft=4;spacingRight=4;overflow=hidden;rotatable=0;points=[[0,0.5],[1,0.5]];portConstraint=eastwest;" parent="J7zx7dvqB2Ua68nCfdAC-12" vertex="1"><mxGeometry y="112" width="230" height="26" as="geometry"/></mxCell><mxCell id="J7zx7dvqB2Ua68nCfdAC-16" value="Rechteck" style="swimlane;fontStyle=1;align=center;verticalAlign=top;childLayout=stackLayout;horizontal=1;startSize=26;horizontalStack=0;resizeParent=1;resizeParentMax=0;resizeLast=0;collapsible=1;marginBottom=0;" parent="1" vertex="1"><mxGeometry x="580" y="260" width="220" height="166" as="geometry"/></mxCell><mxCell id="gbW9CM47LrFMnF1wQmlq-4" value="- punktA: Point" style="text;strokeColor=none;fillColor=none;align=left;verticalAlign=top;spacingLeft=4;spacingRight=4;overflow=hidden;rotatable=0;points=[[0,0.5],[1,0.5]];portConstraint=eastwest;" parent="J7zx7dvqB2Ua68nCfdAC-16" vertex="1"><mxGeometry y="26" width="220" height="26" as="geometry"/></mxCell><mxCell id="gbW9CM47LrFMnF1wQmlq-5" value="- punktB: Point" style="text;strokeColor=none;fillColor=none;align=left;verticalAlign=top;spacingLeft=4;spacingRight=4;overflow=hidden;rotatable=0;points=[[0,0.5],[1,0.5]];portConstraint=eastwest;" parent="J7zx7dvqB2Ua68nCfdAC-16" vertex="1"><mxGeometry y="52" width="220" height="26" as="geometry"/></mxCell><mxCell id="gbW9CM47LrFMnF1wQmlq-6" value="- punktC: Point" style="text;strokeColor=none;fillColor=none;align=left;verticalAlign=top;spacingLeft=4;spacingRight=4;overflow=hidden;rotatable=0;points=[[0,0.5],[1,0.5]];portConstraint=eastwest;" parent="J7zx7dvqB2Ua68nCfdAC-16" vertex="1"><mxGeometry y="78" width="220" height="27" as="geometry"/></mxCell><mxCell id="gbW9CM47LrFMnF1wQmlq-13" value="- punktD: Point" style="text;strokeColor=none;fillColor=none;align=left;verticalAlign=top;spacingLeft=4;spacingRight=4;overflow=hidden;rotatable=0;points=[[0,0.5],[1,0.5]];portConstraint=eastwest;" parent="J7zx7dvqB2Ua68nCfdAC-16" vertex="1"><mxGeometry y="105" width="220" height="27" as="geometry"/></mxCell><mxCell id="J7zx7dvqB2Ua68nCfdAC-18" value="" style="line;strokeWidth=1;fillColor=none;align=left;verticalAlign=middle;spacingTop=-1;spacingLeft=3;spacingRight=3;rotatable=0;labelPosition=right;points=[];portConstraint=eastwest;strokeColor=inherit;" parent="J7zx7dvqB2Ua68nCfdAC-16" vertex="1"><mxGeometry y="132" width="220" height="8" as="geometry"/></mxCell><mxCell id="J7zx7dvqB2Ua68nCfdAC-36" value="+ anzeigen(g2d: Graphics2D): void" style="text;strokeColor=none;fillColor=none;align=left;verticalAlign=top;spacingLeft=4;spacingRight=4;overflow=hidden;rotatable=0;points=[[0,0.5],[1,0.5]];portConstraint=eastwest;" parent="J7zx7dvqB2Ua68nCfdAC-16" vertex="1"><mxGeometry y="140" width="220" height="26" as="geometry"/></mxCell><mxCell id="J7zx7dvqB2Ua68nCfdAC-20" value="GeometrischeFigur&#10;&lt;&lt;abstract&gt;&gt;" style="swimlane;fontStyle=3;align=center;verticalAlign=top;childLayout=stackLayout;horizontal=1;startSize=40;horizontalStack=0;resizeParent=1;resizeParentMax=0;resizeLast=0;collapsible=1;marginBottom=0;" parent="1" vertex="1"><mxGeometry x="345" y="10" width="160" height="178" as="geometry"><mxRectangle x="345" y="10" width="150" height="40" as="alternateBounds"/></mxGeometry></mxCell><mxCell id="jjmDosSC6CJgafzL4yhV-12" value="# farbe: String" style="text;strokeColor=none;fillColor=none;align=left;verticalAlign=top;spacingLeft=4;spacingRight=4;overflow=hidden;rotatable=0;points=[[0,0.5],[1,0.5]];portConstraint=eastwest;" parent="J7zx7dvqB2Ua68nCfdAC-20" vertex="1"><mxGeometry y="40" width="160" height="26" as="geometry"/></mxCell><mxCell id="hrOjf8g7dYwPzYKnAPuE-4" value="# zoomfaktor: int" style="text;strokeColor=none;fillColor=none;align=left;verticalAlign=top;spacingLeft=4;spacingRight=4;overflow=hidden;rotatable=0;points=[[0,0.5],[1,0.5]];portConstraint=eastwest;" parent="J7zx7dvqB2Ua68nCfdAC-20" vertex="1"><mxGeometry y="66" width="160" height="26" as="geometry"/></mxCell><mxCell id="J7zx7dvqB2Ua68nCfdAC-22" value="" style="line;strokeWidth=1;fillColor=none;align=left;verticalAlign=middle;spacingTop=-1;spacingLeft=3;spacingRight=3;rotatable=0;labelPosition=right;points=[];portConstraint=eastwest;strokeColor=inherit;" parent="J7zx7dvqB2Ua68nCfdAC-20" vertex="1"><mxGeometry y="92" width="160" height="8" as="geometry"/></mxCell><mxCell id="J7zx7dvqB2Ua68nCfdAC-23" value="+ setzeFarbe(farbe: String)" style="text;strokeColor=none;fillColor=none;align=left;verticalAlign=top;spacingLeft=4;spacingRight=4;overflow=hidden;rotatable=0;points=[[0,0.5],[1,0.5]];portConstraint=eastwest;" parent="J7zx7dvqB2Ua68nCfdAC-20" vertex="1"><mxGeometry y="100" width="160" height="26" as="geometry"/></mxCell><mxCell id="hrOjf8g7dYwPzYKnAPuE-5" value="+ zoomeAuf(zoomfaktor: int)" style="text;strokeColor=none;fillColor=none;align=left;verticalAlign=top;spacingLeft=4;spacingRight=4;overflow=hidden;rotatable=0;points=[[0,0.5],[1,0.5]];portConstraint=eastwest;" parent="J7zx7dvqB2Ua68nCfdAC-20" vertex="1"><mxGeometry y="126" width="160" height="26" as="geometry"/></mxCell><mxCell id="hrOjf8g7dYwPzYKnAPuE-7" value="+ anzeigen(): void" style="text;strokeColor=none;fillColor=none;align=left;verticalAlign=top;spacingLeft=4;spacingRight=4;overflow=hidden;rotatable=0;points=[[0,0.5],[1,0.5]];portConstraint=eastwest;fontStyle=2" parent="J7zx7dvqB2Ua68nCfdAC-20" vertex="1"><mxGeometry y="152" width="160" height="26" as="geometry"/></mxCell><mxCell id="J7zx7dvqB2Ua68nCfdAC-29" value="Gleichschenklig" style="html=1;" parent="1" vertex="1"><mxGeometry y="590" width="110" height="50" as="geometry"/></mxCell><mxCell id="J7zx7dvqB2Ua68nCfdAC-30" value="Gleichseitig" style="html=1;" parent="1" vertex="1"><mxGeometry x="180" y="590" width="110" height="50" as="geometry"/></mxCell><mxCell id="J7zx7dvqB2Ua68nCfdAC-31" value="Extends" style="endArrow=block;endSize=16;endFill=0;html=1;rounded=0;exitX=0.25;exitY=0;exitDx=0;exitDy=0;" parent="1" source="J7zx7dvqB2Ua68nCfdAC-29" target="J7zx7dvqB2Ua68nCfdAC-12" edge="1"><mxGeometry x="-0.1275" y="2" width="160" relative="1" as="geometry"><mxPoint x="50" y="520" as="sourcePoint"/><mxPoint x="98.99000000000001" y="402.0039999999999" as="targetPoint"/><Array as="points"><mxPoint x="60" y="511"/></Array><mxPoint as="offset"/></mxGeometry></mxCell><mxCell id="J7zx7dvqB2Ua68nCfdAC-33" value="Extends" style="endArrow=block;endSize=16;endFill=0;html=1;rounded=0;exitX=0.5;exitY=0;exitDx=0;exitDy=0;" parent="1" source="J7zx7dvqB2Ua68nCfdAC-30" target="J7zx7dvqB2Ua68nCfdAC-12" edge="1"><mxGeometry x="-0.0356" y="-7" width="160" relative="1" as="geometry"><mxPoint x="234.96" y="510" as="sourcePoint"/><mxPoint x="220.8900000000001" y="404.00599999999986" as="targetPoint"/><mxPoint as="offset"/></mxGeometry></mxCell><mxCell id="hrOjf8g7dYwPzYKnAPuE-1" value="Extends" style="endArrow=block;endSize=16;endFill=0;html=1;rounded=0;" parent="1" source="J7zx7dvqB2Ua68nCfdAC-8" target="J7zx7dvqB2Ua68nCfdAC-20" edge="1"><mxGeometry width="160" relative="1" as="geometry"><mxPoint x="330" y="400" as="sourcePoint"/><mxPoint x="490" y="400" as="targetPoint"/></mxGeometry></mxCell><mxCell id="hrOjf8g7dYwPzYKnAPuE-2" value="Extends" style="endArrow=block;endSize=16;endFill=0;html=1;rounded=0;edgeStyle=orthogonalEdgeStyle;" parent="1" source="J7zx7dvqB2Ua68nCfdAC-16" target="J7zx7dvqB2Ua68nCfdAC-20" edge="1"><mxGeometry width="160" relative="1" as="geometry"><mxPoint x="430" y="270" as="sourcePoint"/><mxPoint x="430" y="166" as="targetPoint"/><Array as="points"><mxPoint x="690" y="230"/><mxPoint x="420" y="230"/></Array></mxGeometry></mxCell><mxCell id="hrOjf8g7dYwPzYKnAPuE-3" value="Extends" style="endArrow=block;endSize=16;endFill=0;html=1;rounded=0;edgeStyle=orthogonalEdgeStyle;" parent="1" source="J7zx7dvqB2Ua68nCfdAC-12" target="J7zx7dvqB2Ua68nCfdAC-20" edge="1"><mxGeometry width="160" relative="1" as="geometry"><mxPoint x="700" y="270" as="sourcePoint"/><mxPoint x="430" y="166" as="targetPoint"/><Array as="points"><mxPoint x="170" y="230"/><mxPoint x="420" y="230"/></Array></mxGeometry></mxCell><mxCell id="J7zx7dvqB2Ua68nCfdAC-39" value="+ anzeigen(g2d: Graphics2D): void" style="text;strokeColor=none;fillColor=none;align=left;verticalAlign=top;spacingLeft=4;spacingRight=4;overflow=hidden;rotatable=0;points=[[0,0.5],[1,0.5]];portConstraint=eastwest;" parent="1" vertex="1"><mxGeometry x="470" y="420" width="230" height="26" as="geometry"/></mxCell></root></mxGraphModel></diagram><diagram id="pk7spuF8Y5thYWKqpEqw" name="Seite-2"><mxGraphModel dx="587" dy="608" grid="1" gridSize="10" guides="1" tooltips="1" connect="1" arrows="1" fold="1" page="1" pageScale="1" pageWidth="1169" pageHeight="827" math="0" shadow="0"><root><mxCell id="0"/><mxCell id="1" parent="0"/><mxCell id="omsnwWQ9fxtIj3CbgA7a-1" value="GeometrischeFigur&#10;&lt;&lt;abstract&gt;&gt;" style="swimlane;fontStyle=3;align=center;verticalAlign=top;childLayout=stackLayout;horizontal=1;startSize=40;horizontalStack=0;resizeParent=1;resizeParentMax=0;resizeLast=0;collapsible=1;marginBottom=0;" vertex="1" parent="1"><mxGeometry x="190" y="140" width="160" height="48" as="geometry"><mxRectangle x="345" y="10" width="150" height="40" as="alternateBounds"/></mxGeometry></mxCell><mxCell id="omsnwWQ9fxtIj3CbgA7a-4" value="" style="line;strokeWidth=1;fillColor=none;align=left;verticalAlign=middle;spacingTop=-1;spacingLeft=3;spacingRight=3;rotatable=0;labelPosition=right;points=[];portConstraint=eastwest;strokeColor=inherit;" vertex="1" parent="omsnwWQ9fxtIj3CbgA7a-1"><mxGeometry y="40" width="160" height="8" as="geometry"/></mxCell></root></mxGraphModel></diagram></mxfile>